<?xml version="1.0" standalone="no"?>
<!DOCTYPE svg PUBLIC "-//W3C//DTD SVG 20010904//EN"
 "http://www.w3.org/TR/2001/REC-SVG-20010904/DTD/svg10.dtd">
<svg version="1.0" xmlns="http://www.w3.org/2000/svg"
 width="348.000000pt" height="348.000000pt" viewBox="0 0 348.000000 348.000000"
 preserveAspectRatio="xMidYMid meet">
<metadata>
Created by potrace 1.14, written by Peter Selinger 2001-2017
</metadata>
<g transform="translate(0.000000,348.000000) scale(0.100000,-0.100000)"
fill="#000000" stroke="none">
<path d="M2160 3224 c-19 -8 -60 -40 -91 -71 l-57 -55 -248 -3 c-249 -3 -299
-8 -391 -46 -29 -12 -35 -11 -55 8 -37 33 -79 50 -143 57 -41 4 -68 2 -84 -6
-29 -15 -64 -81 -87 -163 -13 -45 -32 -78 -76 -129 -32 -39 -58 -75 -58 -81 0
-21 -54 -64 -120 -95 -102 -49 -113 -56 -157 -102 -86 -90 -103 -111 -103
-127 0 -9 -6 -25 -13 -36 -29 -43 -41 -120 -40 -265 1 -145 1 -145 36 -220 20
-41 47 -87 61 -102 30 -32 33 -48 9 -49 -49 -1 -216 2 -370 7 l-173 7 0 -57 0
-56 158 -1 c526 -5 503 -4 568 -37 32 -16 71 -35 85 -42 15 -7 75 -15 135 -19
115 -8 138 -3 188 42 16 13 40 17 115 19 53 1 114 2 136 3 22 1 132 5 245 8
113 4 241 9 285 12 183 12 513 15 539 5 19 -7 32 -6 47 3 17 10 22 9 34 -7 8
-11 29 -21 47 -22 18 -1 45 -6 60 -9 16 -4 58 -4 94 0 56 6 72 12 104 41 36
32 40 34 79 25 23 -5 78 -8 124 -6 71 3 85 0 105 -18 19 -18 22 -18 22 -4 0
14 12 17 63 19 34 1 76 1 92 0 17 -1 58 -4 93 -6 l62 -4 0 58 0 57 -57 7 c-32
3 -168 6 -303 7 -150 0 -250 5 -257 11 -10 8 -7 17 11 42 31 40 96 165 96 183
0 8 7 30 16 49 14 29 16 58 11 167 -5 145 -15 182 -70 268 -40 62 -142 169
-163 169 -7 0 -18 9 -24 19 -5 11 -44 39 -86 63 -67 38 -82 52 -130 124 -30
45 -72 94 -92 108 -56 39 -132 122 -132 144 0 11 -15 42 -32 70 -36 56 -51 61
-108 36z m40 -119 c0 -8 -6 -15 -14 -15 -20 0 -29 17 -14 23 22 9 28 7 28 -8z
m-992 -95 c7 -11 19 -20 27 -20 8 0 24 -13 37 -30 12 -16 30 -30 39 -30 10 0
20 -6 23 -12 5 -10 7 -10 12 0 3 7 25 22 47 34 34 18 60 22 139 22 61 1 98 5
98 11 0 10 153 3 202 -9 10 -2 21 0 24 6 3 5 14 2 26 -8 15 -14 21 -15 27 -6
5 9 28 12 72 9 63 -4 71 -1 109 37 20 20 20 19 20 -26 0 -56 7 -78 27 -78 8 0
11 -4 8 -10 -4 -6 7 -10 24 -10 17 0 31 5 31 10 0 6 7 10 16 10 8 0 13 4 9 9
-3 5 -1 13 5 16 8 5 8 11 0 20 -13 16 -5 35 13 35 14 -1 77 -56 77 -68 0 -5
16 -16 35 -25 37 -17 104 -101 105 -129 0 -9 -10 -18 -22 -21 -17 -3 -15 -5 8
-6 22 -1 37 -9 48 -25 14 -23 14 -25 -2 -29 -10 -3 -7 -5 8 -5 14 1 38 -4 54
-11 23 -9 26 -14 16 -26 -15 -18 1 -20 18 -3 8 8 15 8 27 -2 20 -17 19 -30 -2
-28 -37 3 -49 -3 -50 -22 -2 -19 0 -19 20 -5 30 21 58 20 50 -2 -6 -17 -6 -17
10 -1 19 18 23 33 7 23 -5 -3 -10 -1 -10 4 0 19 18 12 40 -16 12 -15 33 -35
47 -44 36 -24 122 -109 135 -133 28 -51 55 -182 51 -241 -6 -69 -36 -165 -70
-215 -13 -19 -23 -40 -23 -45 0 -19 -55 -65 -77 -65 -11 0 -40 7 -63 15 -23 8
-54 15 -69 15 -40 0 -88 -35 -112 -82 -12 -24 -27 -46 -33 -50 -6 -4 -128 -7
-271 -8 -143 -1 -357 -5 -475 -11 -577 -25 -563 -26 -581 15 -13 28 -86 63
-149 71 -60 8 -169 -10 -226 -38 l-45 -22 -37 21 c-45 26 -116 127 -137 197
-30 95 -30 154 -2 248 14 46 28 98 31 115 8 34 65 94 93 95 10 0 13 3 6 6 -22
8 -15 36 7 30 13 -3 20 0 20 9 0 8 9 14 20 14 13 0 20 7 20 19 0 20 12 26 64
35 16 3 32 9 35 14 3 4 23 18 44 30 l39 22 19 -22 20 -23 -7 25 c-4 14 -12 28
-18 33 -8 5 -6 12 7 21 9 7 17 21 17 31 0 12 6 16 20 12 16 -4 19 -1 14 17 -3
14 3 31 20 51 14 17 26 26 26 20 0 -5 6 1 13 15 8 15 20 24 30 22 11 -2 16 3
15 15 -3 35 2 63 11 63 5 0 11 -10 13 -22 6 -44 100 -51 111 -8 6 25 -19 111
-36 122 -6 4 -22 8 -34 8 -22 0 -31 19 -16 33 13 14 49 6 61 -13z m1514 -1251
c17 -9 18 -13 6 -25 -11 -11 -25 -12 -62 -5 -53 10 -72 23 -61 41 9 14 83 7
117 -11z m-1687 -59 c0 -22 -6 -27 -57 -39 -48 -11 -64 -11 -100 0 -44 15 -62
44 -36 60 7 5 54 8 103 7 89 -3 90 -3 90 -28z"/>
<path d="M1448 2953 c6 -2 18 -2 25 0 6 3 1 5 -13 5 -14 0 -19 -2 -12 -5z"/>
<path d="M1563 2953 c9 -2 23 -2 30 0 6 3 -1 5 -18 5 -16 0 -22 -2 -12 -5z"/>
<path d="M1657 2954 c-8 -8 1 -24 14 -24 5 0 9 7 9 15 0 15 -12 20 -23 9z"/>
<path d="M1938 2953 c12 -2 32 -2 45 0 12 2 2 4 -23 4 -25 0 -35 -2 -22 -4z"/>
<path d="M1400 2930 c-12 -8 -9 -10 13 -10 16 0 26 4 22 10 -8 12 -16 12 -35
0z"/>
<path d="M1520 2930 c0 -5 10 -10 23 -10 18 0 19 2 7 10 -19 13 -30 13 -30 0z"/>
<path d="M1578 2923 c7 -3 16 -2 19 1 4 3 -2 6 -13 5 -11 0 -14 -3 -6 -6z"/>
<path d="M1885 2920 c-3 -5 1 -10 10 -10 9 0 13 5 10 10 -3 6 -8 10 -10 10 -2
0 -7 -4 -10 -10z"/>
<path d="M1953 2923 c15 -2 37 -2 50 0 12 2 0 4 -28 4 -27 0 -38 -2 -22 -4z"/>
<path d="M1272 2894 c-7 -8 -8 -14 -3 -14 10 0 25 19 20 25 -2 1 -10 -3 -17
-11z"/>
<path d="M2215 2870 c3 -5 10 -10 16 -10 5 0 9 5 9 10 0 6 -7 10 -16 10 -8 0
-12 -4 -9 -10z"/>
<path d="M2300 2863 c0 -5 5 -15 10 -23 8 -12 10 -11 10 8 0 12 -4 22 -10 22
-5 0 -10 -3 -10 -7z"/>
<path d="M2345 2860 c3 -5 11 -10 16 -10 6 0 7 5 4 10 -3 6 -11 10 -16 10 -6
0 -7 -4 -4 -10z"/>
<path d="M1245 2840 c-8 -13 5 -13 25 0 13 8 13 10 -2 10 -9 0 -20 -4 -23 -10z"/>
<path d="M2143 2833 c9 -2 23 -2 30 0 6 3 -1 5 -18 5 -16 0 -22 -2 -12 -5z"/>
<path d="M1100 2760 c0 -5 5 -10 10 -10 6 0 10 5 10 10 0 6 -4 10 -10 10 -5 0
-10 -4 -10 -10z"/>
<path d="M2173 2733 c9 -2 23 -2 30 0 6 3 -1 5 -18 5 -16 0 -22 -2 -12 -5z"/>
<path d="M1060 2720 c0 -5 9 -10 20 -10 11 0 20 5 20 10 0 6 -9 10 -20 10 -11
0 -20 -4 -20 -10z"/>
<path d="M2145 2711 l20 -9 -20 -8 c-11 -4 -26 -14 -34 -22 -7 -7 -21 -10 -30
-7 -12 5 -13 3 -4 -6 12 -12 7 -77 -8 -93 -10 -12 75 -56 107 -56 12 0 43 9
70 19 27 11 58 22 69 26 13 5 15 9 8 12 -7 3 -13 14 -13 24 0 11 -4 18 -9 14
-13 -7 -20 6 -23 43 -2 26 -7 31 -35 37 -19 3 -31 10 -28 16 4 5 -4 9 -17 9
-13 0 -34 3 -48 5 -21 5 -22 4 -5 -4z"/>
<path d="M2080 2700 c0 -5 4 -10 9 -10 6 0 13 5 16 10 3 6 -1 10 -9 10 -9 0
-16 -4 -16 -10z"/>
<path d="M1521 2684 c0 -11 3 -14 6 -6 3 7 2 16 -1 19 -3 4 -6 -2 -5 -13z"/>
<path d="M2418 2693 c12 -2 30 -2 40 0 9 3 -1 5 -23 4 -22 0 -30 -2 -17 -4z"/>
<path d="M1280 2660 c0 -5 5 -10 10 -10 6 0 10 5 10 10 0 6 -4 10 -10 10 -5 0
-10 -4 -10 -10z"/>
<path d="M1440 2663 c0 -5 -27 -6 -60 -5 -46 3 -60 1 -58 -9 2 -8 -8 -15 -21
-17 -19 -3 -21 -6 -10 -13 9 -6 10 -12 4 -16 -12 -9 -14 -104 -2 -96 4 2 7 -1
7 -7 0 -21 64 -50 113 -50 38 0 51 5 70 26 12 14 21 28 19 30 -1 2 5 20 13 40
16 38 13 54 -11 54 -8 0 -14 5 -14 11 0 6 7 9 15 5 8 -3 15 -1 15 4 0 6 -10
10 -22 10 -13 0 -30 5 -38 10 -13 8 -12 10 3 10 9 0 17 5 17 10 0 6 -9 10 -20
10 -11 0 -20 -3 -20 -7z m80 -77 c0 -3 -4 -8 -10 -11 -5 -3 -10 -1 -10 4 0 6
5 11 10 11 6 0 10 -2 10 -4z"/>
<path d="M2300 2643 c0 -21 3 -24 9 -14 5 8 7 20 4 28 -8 21 -13 15 -13 -14z"/>
<path d="M1238 2593 c6 -2 18 -2 25 0 6 3 1 5 -13 5 -14 0 -19 -2 -12 -5z"/>
<path d="M1560 2580 c0 -5 4 -10 9 -10 6 0 13 5 16 10 3 6 -1 10 -9 10 -9 0
-16 -4 -16 -10z"/>
<path d="M1751 2568 c-13 -20 -12 -21 25 -15 22 4 49 7 62 7 13 0 21 3 19 8
-3 4 -22 7 -44 6 -21 0 -40 3 -43 7 -3 5 -12 -1 -19 -13z"/>
<path d="M1904 2579 c-3 -6 -1 -16 5 -22 8 -8 11 -5 11 11 0 24 -5 28 -16 11z"/>
<path d="M1950 2570 c0 -23 10 -26 28 -8 18 18 15 28 -8 28 -13 0 -20 -7 -20
-20z"/>
<path d="M2333 2583 c9 -2 23 -2 30 0 6 3 -1 5 -18 5 -16 0 -22 -2 -12 -5z"/>
<path d="M2480 2580 c0 -5 -10 -10 -22 -10 -36 0 -9 -14 33 -17 37 -3 38 -1
27 17 -13 21 -38 27 -38 10z"/>
<path d="M2660 2550 c0 -5 7 -10 15 -10 8 0 15 5 15 10 0 6 -7 10 -15 10 -8 0
-15 -4 -15 -10z"/>
<path d="M1608 2533 c7 -3 16 -2 19 1 4 3 -2 6 -13 5 -11 0 -14 -3 -6 -6z"/>
<path d="M805 2491 c-4 -12 -12 -17 -24 -14 -21 5 -37 -12 -21 -22 13 -8 82
34 74 46 -9 15 -22 10 -29 -10z"/>
<path d="M961 2494 c0 -11 3 -14 6 -6 3 7 2 16 -1 19 -3 4 -6 -2 -5 -13z"/>
<path d="M915 2420 c-7 -12 2 -12 30 0 19 8 19 9 -2 9 -12 1 -25 -3 -28 -9z"/>
<path d="M1790 2409 c-26 -22 -50 -21 -106 1 -63 26 -87 -18 -37 -65 41 -38
85 -42 151 -15 49 20 59 22 86 10 57 -23 89 -23 126 2 69 47 38 104 -42 77
-31 -10 -44 -10 -59 -1 -30 19 -91 14 -119 -9z"/>
<path d="M780 2400 c-13 -8 -12 -10 3 -10 9 0 17 5 17 10 0 12 -1 12 -20 0z"/>
<path d="M596 2354 c-13 -33 -6 -54 16 -54 20 0 21 1 3 20 -10 11 -15 23 -11
27 4 4 11 1 16 -7 11 -17 13 -9 4 14 -3 9 -10 16 -14 16 -4 0 -11 -7 -14 -16z"/>
<path d="M655 2300 c-3 -5 1 -10 9 -10 9 0 16 5 16 10 0 6 -4 10 -9 10 -6 0
-13 -4 -16 -10z"/>
<path d="M461 1569 c-13 -14 -26 -19 -40 -14 -12 4 -21 2 -21 -4 0 -7 20 -9
53 -7 28 2 58 5 65 5 6 1 12 10 12 21 0 27 -43 27 -69 -1z"/>
<path d="M633 1583 c-29 -11 -13 -33 24 -33 35 0 36 0 18 20 -19 21 -22 22
-42 13z"/>
<path d="M2300 1583 c1 -24 46 -40 78 -28 11 4 12 8 2 20 -13 15 -80 21 -80 8z"/>
<path d="M2805 1569 c-9 -29 -2 -33 39 -19 39 12 46 24 20 34 -30 12 -53 6
-59 -15z"/>
<path d="M2104 1572 c6 -11 136 -15 136 -5 0 5 -32 9 -71 10 -38 2 -68 -1 -65
-5z"/>
<path d="M1665 1560 c-36 -14 6 -22 92 -16 43 2 85 5 93 6 13 0 13 1 0 10 -18
12 -157 12 -185 0z"/>
<path d="M2684 1555 c26 -20 42 -19 22 0 -8 8 -21 15 -28 15 -8 -1 -6 -6 6
-15z"/>
<path d="M1230 1551 c0 -19 18 -20 61 -7 l44 14 -52 1 c-29 1 -53 -3 -53 -8z"/>
<path d="M2509 1515 c-14 -13 -1886 -28 -1924 -15 -10 4 -31 1 -45 -7 -16 -7
-45 -11 -71 -8 -24 3 -140 8 -256 11 l-213 7 0 -51 0 -52 63 -1 c34 0 199 -3
366 -5 314 -4 329 -6 315 -44 -13 -35 -34 -183 -40 -282 -6 -89 -10 -109 -24
-113 -9 -3 -36 -23 -59 -44 -31 -29 -41 -45 -41 -69 0 -40 39 -77 96 -91 47
-12 67 -28 91 -74 49 -95 131 -159 236 -182 34 -8 82 -19 107 -25 72 -18 183
-9 219 18 17 12 41 22 53 22 13 0 106 -3 208 -6 102 -3 219 -1 260 4 41 5 156
19 255 31 99 12 203 26 230 31 110 22 211 47 232 58 17 10 30 8 67 -9 73 -32
134 -19 197 41 36 34 52 58 56 83 10 63 -1 82 -59 104 l-53 20 -6 134 c-3 74
-9 141 -12 149 -4 8 -11 46 -16 84 -6 37 -17 76 -25 85 -20 22 -32 81 -18 90
5 3 81 3 168 -1 88 -3 261 -6 387 -7 l227 -1 0 49 0 49 -367 6 c-372 6 -396 7
-468 4 -22 -1 -61 1 -86 5 -26 3 -48 5 -50 2z m104 -197 c39 -73 45 -93 51
-168 22 -286 22 -289 -20 -309 -24 -11 -26 -16 -22 -55 l5 -42 -71 -22 c-39
-12 -91 -27 -115 -33 -44 -10 -64 -14 -301 -43 -69 -9 -145 -21 -170 -27 -56
-13 -452 -25 -504 -15 -32 6 -40 13 -57 51 -22 49 -33 55 -95 55 -56 0 -79
-12 -99 -51 -20 -38 -13 -49 35 -49 42 0 57 -12 37 -27 -41 -33 -248 -16 -316
25 -28 17 -81 80 -81 96 0 3 -14 20 -31 37 -28 29 -31 36 -25 75 3 24 1 46 -4
49 -6 3 -10 51 -10 106 0 84 2 99 16 99 15 0 15 2 0 25 -23 34 -20 55 6 55 17
0 19 3 10 12 -13 13 -17 88 -4 88 4 0 8 23 10 52 5 83 -2 81 302 76 254 -5
875 2 970 11 52 4 172 9 267 10 l171 1 45 -82z m132 -578 c3 -5 -5 -16 -19
-25 -19 -13 -29 -14 -45 -5 -30 16 -26 28 12 33 17 2 35 5 39 5 4 1 9 -2 13
-8z"/>
<path d="M880 1290 c19 -13 30 -13 30 0 0 6 -10 10 -22 10 -19 0 -20 -2 -8
-10z"/>
<path d="M870 1249 c0 -5 5 -7 10 -4 6 3 10 8 10 11 0 2 -4 4 -10 4 -5 0 -10
-5 -10 -11z"/>
<path d="M850 1221 c0 -6 5 -13 10 -16 6 -3 10 1 10 9 0 9 -4 16 -10 16 -5 0
-10 -4 -10 -9z"/>
<path d="M880 1205 c0 -8 7 -15 16 -15 14 0 14 3 4 15 -7 8 -14 15 -16 15 -2
0 -4 -7 -4 -15z"/>
<path d="M925 1160 c3 -5 8 -10 11 -10 2 0 4 5 4 10 0 6 -5 10 -11 10 -5 0 -7
-4 -4 -10z"/>
<path d="M890 1125 c0 -14 5 -25 10 -25 6 0 10 4 10 9 0 5 3 16 6 25 4 11 1
16 -10 16 -10 0 -16 -9 -16 -25z"/>
<path d="M863 1035 c0 -22 2 -30 4 -17 2 12 2 30 0 40 -3 9 -5 -1 -4 -23z"/>
<path d="M961 1014 c0 -11 3 -14 6 -6 3 7 2 16 -1 19 -3 4 -6 -2 -5 -13z"/>
<path d="M863 915 c0 -44 2 -61 4 -37 2 23 2 59 0 80 -2 20 -4 1 -4 -43z"/>
<path d="M968 824 c-5 -4 -8 -19 -8 -33 1 -23 2 -24 11 -8 11 19 9 53 -3 41z"/>
<path d="M846 812 c-3 -2 -2 -10 1 -18 4 -11 7 -11 19 1 8 7 14 15 14 18 0 5
-29 5 -34 -1z"/>
<path d="M900 746 c0 -9 40 -13 46 -5 3 5 -6 9 -20 9 -14 0 -26 -2 -26 -4z"/>
<path d="M452 708 c-17 -17 -15 -48 8 -93 11 -22 20 -41 20 -43 0 -2 -13 -1
-29 3 -39 8 -53 -16 -37 -63 17 -49 119 -102 167 -87 14 5 19 16 19 46 0 27 4
39 14 39 41 0 19 59 -35 95 -22 14 -39 30 -39 35 0 11 -59 80 -69 80 -4 0 -12
-5 -19 -12z m73 -168 c3 -5 -1 -10 -9 -10 -8 0 -18 5 -21 10 -3 6 1 10 9 10 8
0 18 -4 21 -10z"/>
<path d="M3014 628 c-11 -13 -32 -42 -48 -66 -15 -24 -35 -46 -44 -49 -23 -9
-32 -23 -32 -51 0 -28 24 -38 56 -24 28 14 29 12 9 -34 -8 -20 -12 -40 -9 -45
7 -12 44 -12 44 0 0 5 9 12 19 16 11 3 40 27 66 53 36 38 45 53 43 77 -4 42
-31 43 -71 3 -18 -18 -41 -39 -50 -47 -25 -20 -22 5 3 26 11 10 20 22 20 27 0
6 11 21 25 36 33 34 39 94 10 98 -12 2 -29 -7 -41 -20z"/>
</g>
</svg>
