<svg height="50" viewBox="0 0 173.34 112.5">
    <g>
        <path
            d="M 51.123 16.064 A 15.044 15.044 0 0 0 50.322 17.318 A 19.468 19.468 0 0 0 49.731 18.433 A 17.933 17.933 0 0 0 49.103 19.879 A 24.439 24.439 0 0 0 48.535 21.533 A 23.828 23.828 0 0 0 48.054 23.388 Q 47.83 24.409 47.656 25.562 A 38.303 38.303 0 0 0 47.375 27.972 A 52.512 52.512 0 0 0 47.217 30.664 A 570.433 570.433 0 0 0 47.046 35.938 Q 46.973 38.574 46.826 41.211 A 1.741 1.741 0 0 1 46.967 41.19 Q 47.126 41.171 47.361 41.165 A 9.583 9.583 0 0 1 47.607 41.162 Q 49.85 41.162 52.606 41.776 A 33.993 33.993 0 0 1 53.223 41.919 A 33.743 33.743 0 0 1 57.408 43.238 A 40.91 40.91 0 0 1 59.668 44.189 A 38.464 38.464 0 0 0 64.145 42.738 A 29.962 29.962 0 0 0 67.603 41.113 A 35.218 35.218 0 0 0 71.967 38.276 A 30.458 30.458 0 0 0 73.706 36.841 A 36.52 36.52 0 0 0 78.442 31.763 A 81.048 81.048 0 0 0 82.275 26.318 A 156.828 156.828 0 0 0 85.596 20.923 A 51.098 51.098 0 0 1 88.022 17.165 A 44.728 44.728 0 0 1 88.867 16.016 A 33.091 33.091 0 0 1 92.825 11.638 A 36.209 36.209 0 0 1 92.896 11.572 A 33.769 33.769 0 0 1 96.682 8.531 A 30.256 30.256 0 0 1 97.583 7.935 A 26.69 26.69 0 0 1 101.07 6.051 A 23.213 23.213 0 0 1 102.441 5.493 A 15.491 15.491 0 0 1 104.738 4.83 A 11.546 11.546 0 0 1 107.031 4.59 Q 107.764 4.59 108.374 5.054 A 1.495 1.495 0 0 1 108.975 6.146 A 2.084 2.084 0 0 1 108.984 6.348 A 1.966 1.966 0 0 1 108.852 7.078 A 1.814 1.814 0 0 1 108.472 7.666 A 1.88 1.88 0 0 1 107.202 8.25 A 2.414 2.414 0 0 1 107.178 8.252 A 8.048 8.048 0 0 0 105.929 8.399 Q 105.302 8.52 104.601 8.738 A 17.095 17.095 0 0 0 103.735 9.033 A 20.003 20.003 0 0 0 101.472 10.043 A 25.546 25.546 0 0 0 99.658 11.084 A 31.046 31.046 0 0 0 96.536 13.336 A 36.041 36.041 0 0 0 95.508 14.209 Q 93.457 16.016 91.797 18.262 A 72.744 72.744 0 0 0 88.257 23.535 A 243.511 243.511 0 0 1 84.937 28.833 A 83.003 83.003 0 0 1 81.348 33.96 A 37.153 37.153 0 0 1 77.154 38.603 A 40.702 40.702 0 0 1 77.002 38.745 A 36.543 36.543 0 0 1 73.31 41.74 A 43.409 43.409 0 0 1 71.411 43.018 A 37.203 37.203 0 0 1 67.553 45.145 A 48.547 48.547 0 0 1 64.111 46.631 A 35.415 35.415 0 0 1 68.763 50.171 A 42.398 42.398 0 0 1 70.801 52.124 A 338.657 338.657 0 0 1 74.158 55.609 A 444.57 444.57 0 0 1 77.783 59.473 A 13537.032 13537.032 0 0 1 80.817 62.744 A 11251.452 11251.452 0 0 1 83.667 65.82 A 71.674 71.674 0 0 0 86.389 68.61 A 55.632 55.632 0 0 0 89.038 71.021 A 31.945 31.945 0 0 0 91.534 72.949 A 23.19 23.19 0 0 0 94.116 74.512 A 11.436 11.436 0 0 0 97.227 75.603 A 10.148 10.148 0 0 0 99.121 75.781 A 11.947 11.947 0 0 0 104.924 74.258 A 14.09 14.09 0 0 0 105.127 74.146 Q 108.008 72.51 110.01 69.385 A 1.803 1.803 0 0 1 110.603 68.799 Q 111.016 68.555 111.572 68.555 A 1.906 1.906 0 0 1 112.227 68.663 A 1.655 1.655 0 0 1 112.915 69.141 A 2.213 2.213 0 0 1 113.261 69.662 A 1.752 1.752 0 0 1 113.428 70.41 A 1.722 1.722 0 0 1 113.135 71.387 A 18.444 18.444 0 0 1 109.747 75.421 A 16.147 16.147 0 0 1 106.934 77.417 A 15.687 15.687 0 0 1 99.17 79.492 A 14.057 14.057 0 0 1 93.164 78.149 A 24.769 24.769 0 0 1 89.743 76.193 A 31.612 31.612 0 0 1 87.402 74.438 A 58.572 58.572 0 0 1 84.115 71.512 A 75.144 75.144 0 0 1 81.494 68.872 A 627.78 627.78 0 0 1 78.369 65.546 A 769.665 769.665 0 0 1 75.049 61.963 A 4158.005 4158.005 0 0 0 72.87 59.644 A 3426.645 3426.645 0 0 0 70.825 57.471 A 82.804 82.804 0 0 0 68.391 54.989 A 69.07 69.07 0 0 0 66.968 53.638 A 44.496 44.496 0 0 0 64.134 51.23 A 39.45 39.45 0 0 0 63.184 50.513 Q 61.279 49.121 59.229 48.096 A 39.426 39.426 0 0 1 55.539 48.806 A 33.956 33.956 0 0 1 54.15 48.975 A 51.882 51.882 0 0 1 51.807 49.158 A 39.647 39.647 0 0 1 49.658 49.219 A 34.829 34.829 0 0 1 48.718 49.207 A 27.369 27.369 0 0 1 47.852 49.17 A 11.377 11.377 0 0 1 47.011 49.09 A 8.765 8.765 0 0 1 46.338 48.975 A 86.959 86.959 0 0 1 45.374 56.251 A 79.206 79.206 0 0 1 45.19 57.251 Q 44.434 61.23 43.164 64.722 A 30.025 30.025 0 0 1 40.552 70.179 A 27.369 27.369 0 0 1 39.966 71.094 Q 38.037 73.975 35.278 76.025 A 19.978 19.978 0 0 1 31.023 78.418 A 24.57 24.57 0 0 1 28.784 79.224 A 24.866 24.866 0 0 1 24.762 80.084 Q 22.877 80.335 20.772 80.367 A 40.649 40.649 0 0 1 20.166 80.371 Q 17.383 80.371 14.673 79.907 A 30.786 30.786 0 0 1 9.448 78.54 Q 6.934 77.637 4.663 76.343 A 22.611 22.611 0 0 1 1.045 73.798 A 20.79 20.79 0 0 1 0.586 73.389 A 1.592 1.592 0 0 1 0.024 72.362 A 2.315 2.315 0 0 1 0 72.021 A 1.807 1.807 0 0 1 0.502 70.765 A 2.349 2.349 0 0 1 0.537 70.728 Q 1.074 70.166 1.807 70.166 A 2.036 2.036 0 0 1 2.393 70.247 A 1.601 1.601 0 0 1 3.076 70.654 A 21.448 21.448 0 0 0 8.709 74.307 A 25.83 25.83 0 0 0 10.742 75.122 A 28.083 28.083 0 0 0 20.166 76.709 Q 25.156 76.709 28.802 75.349 A 16.216 16.216 0 0 0 30.493 74.609 Q 34.619 72.51 37.158 68.677 A 25.319 25.319 0 0 0 39.67 63.739 A 33.387 33.387 0 0 0 40.967 59.497 A 70.97 70.97 0 0 0 42.15 53.198 A 92.687 92.687 0 0 0 42.773 47.607 A 4.007 4.007 0 0 1 42.28 47.07 A 3.054 3.054 0 0 1 41.919 46.46 A 3.178 3.178 0 0 1 41.65 45.166 A 3.115 3.115 0 0 1 42.748 42.763 A 4.586 4.586 0 0 1 43.164 42.432 A 222.938 222.938 0 0 0 43.384 36.548 A 967.458 967.458 0 0 1 43.549 30.569 A 1041.588 1041.588 0 0 1 43.555 30.371 Q 43.629 26.521 44.219 23.615 A 22.328 22.328 0 0 1 44.629 21.924 A 44.06 44.06 0 0 1 45.455 19.324 Q 46.082 17.554 46.777 16.162 Q 44.616 16.249 42.263 16.048 A 42.083 42.083 0 0 1 41.65 15.991 A 244.34 244.34 0 0 1 36.182 15.381 A 647.97 647.97 0 0 0 30.615 14.722 A 48.379 48.379 0 0 0 25.857 14.409 A 44.271 44.271 0 0 0 25.195 14.404 A 20.692 20.692 0 0 0 20.074 15.024 A 18.881 18.881 0 0 0 18.848 15.381 A 17.236 17.236 0 0 0 15.264 17.01 A 15.067 15.067 0 0 0 13.647 18.14 Q 11.426 19.922 10.156 22.412 A 11.776 11.776 0 0 0 8.892 27.51 A 13.766 13.766 0 0 0 8.887 27.881 A 10.014 10.014 0 0 0 9.041 29.691 Q 9.234 30.741 9.669 31.587 A 5.691 5.691 0 0 0 9.985 32.129 A 11.59 11.59 0 0 0 11.209 33.686 A 9.074 9.074 0 0 0 12.451 34.79 A 13.202 13.202 0 0 0 13.446 35.455 Q 13.948 35.757 14.416 35.965 A 6.526 6.526 0 0 0 14.966 36.182 A 2496.855 2496.855 0 0 0 15.237 36.274 Q 16.132 36.578 16.26 36.621 A 1.743 1.743 0 0 1 17.285 37.28 A 1.847 1.847 0 0 1 17.676 38.428 Q 17.676 39.258 17.09 39.746 A 2.202 2.202 0 0 1 16.529 40.092 A 1.823 1.823 0 0 1 15.82 40.234 A 2.824 2.824 0 0 1 15.667 40.231 Q 15.525 40.223 15.43 40.199 A 0.618 0.618 0 0 1 15.381 40.186 A 9.907 9.907 0 0 1 14.206 39.851 Q 13.639 39.654 13.019 39.376 A 19.9 19.9 0 0 1 12.256 39.014 A 13.267 13.267 0 0 1 9.628 37.268 A 15.508 15.508 0 0 1 8.936 36.646 A 12.257 12.257 0 0 1 6.942 34.152 A 14.844 14.844 0 0 1 6.299 32.983 A 10.141 10.141 0 0 1 5.403 30.141 A 13.731 13.731 0 0 1 5.225 27.881 Q 5.225 24.072 6.787 20.923 Q 8.35 17.773 11.06 15.503 A 19.287 19.287 0 0 1 16.266 12.412 A 22.513 22.513 0 0 1 17.407 11.987 A 23.536 23.536 0 0 1 24.508 10.75 A 26.672 26.672 0 0 1 25.146 10.742 A 62.003 62.003 0 0 1 31.592 11.084 Q 34.863 11.426 37.988 11.792 A 272.185 272.185 0 0 0 42.525 12.286 A 236.711 236.711 0 0 0 43.97 12.427 A 35.398 35.398 0 0 0 46.17 12.567 Q 47.778 12.618 49.219 12.5 A 15.108 15.108 0 0 1 50.494 11.09 A 18.883 18.883 0 0 1 51.465 10.205 A 18.584 18.584 0 0 1 54.272 8.228 A 18.012 18.012 0 0 1 57.3 6.836 A 9.635 9.635 0 0 1 59.24 6.368 A 8.268 8.268 0 0 1 60.303 6.299 Q 61.865 6.299 62.988 7.251 Q 64.111 8.203 64.111 9.668 A 2.753 2.753 0 0 1 63.731 11.043 Q 63.48 11.486 63.062 11.914 A 8.192 8.192 0 0 1 61.938 12.863 Q 61.19 13.393 60.23 13.867 A 17.615 17.615 0 0 1 58.301 14.673 Q 57.263 15.039 56.079 15.332 A 26.775 26.775 0 0 1 51.446 16.044 A 29.572 29.572 0 0 1 51.123 16.064 Z M 162.451 57.568 L 162.451 61.816 A 169.096 169.096 0 0 1 162.128 72.491 A 130.965 130.965 0 0 1 161.157 82.251 Q 160 90.572 157.572 96.822 A 44.743 44.743 0 0 1 156.982 98.267 A 31.604 31.604 0 0 1 154.111 103.576 A 23.256 23.256 0 0 1 149.39 108.74 A 17.118 17.118 0 0 1 140.562 112.345 A 22.42 22.42 0 0 1 137.891 112.5 Q 135.01 112.5 132.227 111.401 Q 129.443 110.303 127.271 108.057 Q 125.098 105.811 123.755 102.466 Q 122.452 99.219 122.413 94.892 A 29.724 29.724 0 0 1 122.412 94.629 Q 122.412 89.697 124.243 85.229 A 36.737 36.737 0 0 1 129.077 76.831 A 48.967 48.967 0 0 1 135.938 69.556 A 84.403 84.403 0 0 1 143.823 63.477 A 85.693 85.693 0 0 1 149.551 59.899 A 73.937 73.937 0 0 1 151.758 58.691 A 125.699 125.699 0 0 1 155.017 57.037 Q 156.512 56.307 157.859 55.708 A 69.085 69.085 0 0 1 158.74 55.322 A 209.751 209.751 0 0 0 158.301 45.239 A 153.789 153.789 0 0 1 157.959 34.863 A 74.07 74.07 0 0 1 158.426 26.428 A 67.109 67.109 0 0 1 158.569 25.269 A 71.928 71.928 0 0 1 159.513 19.739 A 60.456 60.456 0 0 1 160.254 16.65 A 34.972 34.972 0 0 1 157.462 18.058 A 41.576 41.576 0 0 1 156.079 18.652 A 75.807 75.807 0 0 1 151.937 20.201 A 83.923 83.923 0 0 1 151.318 20.41 A 171.815 171.815 0 0 1 146.216 22.021 A 550.141 550.141 0 0 1 141.064 23.535 A 69.212 69.212 0 0 0 136.949 24.868 A 54.412 54.412 0 0 0 134.058 26.001 A 27.552 27.552 0 0 0 131.134 27.448 A 20.898 20.898 0 0 0 128.662 29.102 A 14.115 14.115 0 0 0 126.258 31.473 A 12.153 12.153 0 0 0 125.171 33.105 A 9.906 9.906 0 0 0 124.024 36.687 A 12.555 12.555 0 0 0 123.926 38.281 A 14.846 14.846 0 0 0 124.143 40.889 Q 124.427 42.476 125.078 43.777 A 9.138 9.138 0 0 0 125.244 44.092 Q 126.563 46.484 128.687 47.974 A 14.152 14.152 0 0 0 133.306 50.08 A 15.99 15.99 0 0 0 133.472 50.122 A 21.966 21.966 0 0 0 138.77 50.781 A 1.863 1.863 0 0 1 139.443 50.899 A 1.689 1.689 0 0 1 140.063 51.318 A 1.833 1.833 0 0 1 140.576 52.612 A 2.363 2.363 0 0 1 140.576 52.637 Q 140.576 53.418 140.015 53.931 A 2.067 2.067 0 0 1 139.5 54.281 A 1.7 1.7 0 0 1 138.77 54.443 A 23.734 23.734 0 0 1 132.153 53.491 A 18.221 18.221 0 0 1 126.221 50.562 Q 123.584 48.584 121.924 45.557 A 13.244 13.244 0 0 1 120.497 41.353 A 17.614 17.614 0 0 1 120.264 38.428 A 15.097 15.097 0 0 1 120.694 34.755 A 12.574 12.574 0 0 1 121.704 32.056 A 16.101 16.101 0 0 1 125.18 27.539 A 18.656 18.656 0 0 1 125.732 27.051 A 23.709 23.709 0 0 1 128.984 24.749 A 30.699 30.699 0 0 1 131.982 23.193 Q 135.645 21.533 140.088 20.264 Q 143.311 19.336 146.484 18.311 A 120.915 120.915 0 0 0 151.067 16.731 A 106.204 106.204 0 0 0 152.515 16.187 A 64.253 64.253 0 0 0 155.904 14.775 A 52.463 52.463 0 0 0 157.764 13.892 A 29.597 29.597 0 0 0 159.921 12.704 Q 160.984 12.057 161.865 11.377 Q 163.147 7.788 164.555 5.282 A 20.174 20.174 0 0 1 166.064 2.954 A 13.115 13.115 0 0 1 167.158 1.679 Q 168.424 0.396 169.626 0.093 A 3.002 3.002 0 0 1 170.361 0 A 2.616 2.616 0 0 1 170.849 0.048 A 3.587 3.587 0 0 1 171.313 0.171 A 3.129 3.129 0 0 1 172.114 0.578 A 3.663 3.663 0 0 1 172.29 0.708 Q 172.754 1.074 173.047 1.709 Q 173.301 2.259 173.335 3.03 A 5.518 5.518 0 0 1 173.34 3.271 A 5.08 5.08 0 0 1 173.011 5.002 Q 172.513 6.375 171.264 7.944 A 17.809 17.809 0 0 1 171.094 8.154 Q 169.183 10.48 166.107 12.841 A 47.027 47.027 0 0 1 164.99 13.672 Q 163.596 17.709 162.628 22.906 A 89.016 89.016 0 0 0 162.598 23.071 Q 161.621 28.369 161.621 34.717 Q 161.621 39.209 161.914 43.799 A 334.26 334.26 0 0 1 162.183 48.56 A 410.745 410.745 0 0 1 162.402 53.662 A 6.879 6.879 0 0 1 163.14 53.314 Q 163.863 53.027 164.453 53.027 A 1.816 1.816 0 0 1 165.674 53.491 A 1.493 1.493 0 0 1 166.208 54.575 A 1.916 1.916 0 0 1 166.211 54.688 A 1.844 1.844 0 0 1 166.074 55.414 Q 165.889 55.851 165.454 56.144 A 2.326 2.326 0 0 1 165.234 56.274 Q 164.258 56.787 162.451 57.568 Z M 158.789 59.18 Q 155.957 60.4 152.441 62.305 A 71.477 71.477 0 0 0 147.325 65.37 A 83.574 83.574 0 0 0 145.288 66.748 Q 141.65 69.287 138.208 72.363 A 47.992 47.992 0 0 0 132.056 78.979 A 33.336 33.336 0 0 0 127.71 86.45 Q 126.074 90.381 126.074 94.58 A 21.018 21.018 0 0 0 126.285 97.63 Q 126.539 99.361 127.1 100.83 A 14.585 14.585 0 0 0 128.433 103.505 A 11.846 11.846 0 0 0 129.858 105.322 Q 131.592 107.129 133.813 108.032 A 12.016 12.016 0 0 0 138.379 108.936 A 14.826 14.826 0 0 0 142.299 108.436 A 12.371 12.371 0 0 0 145.508 107.056 A 16.758 16.758 0 0 0 149.659 103.423 A 20.503 20.503 0 0 0 150.855 101.831 A 28.098 28.098 0 0 0 153.169 97.667 A 37.162 37.162 0 0 0 154.639 93.872 A 63.669 63.669 0 0 0 156.266 87.904 A 79.296 79.296 0 0 0 157.08 83.716 Q 158.008 78.174 158.398 71.948 Q 158.789 65.723 158.789 59.18 Z M 54.15 45.557 Q 53.711 45.41 52.979 45.239 A 22.664 22.664 0 0 0 52.209 45.074 A 29.219 29.219 0 0 0 51.367 44.922 A 27.578 27.578 0 0 0 50.009 44.731 A 31.855 31.855 0 0 0 49.512 44.678 A 19.189 19.189 0 0 0 47.665 44.58 A 17.627 17.627 0 0 0 47.607 44.58 A 4.384 4.384 0 0 0 47.269 44.593 A 3.779 3.779 0 0 0 47.144 44.604 A 5.076 5.076 0 0 0 46.859 44.645 A 6.064 6.064 0 0 0 46.68 44.678 A 2.563 2.563 0 0 0 46.632 45.107 A 2.893 2.893 0 0 0 46.631 45.19 A 2.666 2.666 0 0 1 46.599 45.611 A 2.394 2.394 0 0 1 46.582 45.703 Q 47.314 45.898 49.219 45.898 L 50.146 45.898 A 19.002 19.002 0 0 0 50.812 45.886 A 24.808 24.808 0 0 0 51.538 45.85 A 335.866 335.866 0 0 0 52.825 45.764 A 303.77 303.77 0 0 0 53.003 45.752 A 7.148 7.148 0 0 0 53.458 45.707 Q 53.862 45.653 54.15 45.557 Z M 60.449 9.277 A 2.627 2.627 0 0 0 60.113 9.301 Q 59.766 9.346 59.308 9.477 A 9.378 9.378 0 0 0 59.155 9.521 A 10.367 10.367 0 0 0 58.231 9.852 A 13.519 13.519 0 0 0 57.446 10.205 A 28.485 28.485 0 0 0 55.847 11.049 A 31.409 31.409 0 0 0 55.615 11.182 A 14.467 14.467 0 0 0 54.538 11.868 A 11.839 11.839 0 0 0 53.955 12.305 A 9.331 9.331 0 0 0 55.735 11.986 A 11.188 11.188 0 0 0 56.567 11.719 A 22.763 22.763 0 0 0 57.826 11.22 A 16.597 16.597 0 0 0 58.936 10.693 Q 59.961 10.156 60.425 9.717 Q 60.872 9.293 60.479 9.278 A 0.787 0.787 0 0 0 60.449 9.277 Z" />
    </g>
</svg>